<svg width="180" height="180" viewBox="0 0 180 180" fill="none" xmlns="http://www.w3.org/2000/svg">
  <rect width="180" height="180" rx="40" fill="url(#paint0_linear)"/>
  <circle cx="90" cy="90" r="54" fill="white" fill-opacity="0.12"/>
  <path d="M63 57C63 51.4772 67.4772 47 73 47H104C112.284 47 119 53.7157 119 62V63H126C133.18 63 139 68.8203 139 76C139 82.3198 134.492 87.5869 128.517 88.7596C127.857 104.273 115.073 116.667 99.398 116.667H82.602C66.5074 116.667 53.458 103.618 53.458 87.5233V57H63Z" fill="white"/>
  <path d="M119 73V78.9583C123.97 78.9583 128 74.9283 128 69.9583C128 69.6218 127.982 69.2892 127.946 68.9617C126.797 71.3296 123.97 73 119 73Z" fill="#FF7A59"/>
  <path d="M70 129C70 126.791 71.7909 125 74 125H108C110.209 125 112 126.791 112 129V133H70V129Z" fill="white" fill-opacity="0.92"/>
  <circle cx="78" cy="83" r="7" fill="#FF8F6B"/>
  <circle cx="102" cy="83" r="7" fill="#FF8F6B"/>
  <circle cx="90" cy="98" r="7" fill="#FFD166"/>
  <defs>
    <linearGradient id="paint0_linear" x1="19.5" y1="13.5" x2="163.5" y2="166.5" gradientUnits="userSpaceOnUse">
      <stop stop-color="#0EA5E9"/>
      <stop offset="0.55" stop-color="#2563EB"/>
      <stop offset="1" stop-color="#0F172A"/>
    </linearGradient>
  </defs>
</svg>
